<?xml version="1.0" standalone="no"?>
<!DOCTYPE svg PUBLIC "-//W3C//DTD SVG 1.1//EN" "http://www.w3.org/Graphics/SVG/1.1/DTD/svg11.dtd" >
<svg xmlns="http://www.w3.org/2000/svg">
<metadata>Generated by IcoMoon</metadata>
<defs>
<font id="icomoon" horiz-adv-x="1024">
<font-face units-per-em="1024" ascent="960" descent="-64" />
<missing-glyph horiz-adv-x="1024" />
<glyph unicode="&#x20;" horiz-adv-x="512" d="" />
<glyph unicode="&#xe600;" glyph-name="aprobado" d="M515.2-52.8c-275.2 0-499.2 224-499.2 499.2s224 499.2 499.2 499.2 499.2-224 499.2-499.2c0-275.2-224-499.2-499.2-499.2zM515.2 849.6c-222.4 0-403.2-180.8-403.2-403.2s180.8-401.6 403.2-401.6 401.6 179.2 401.6 401.6c0 222.4-180.8 403.2-401.6 403.2zM819.2 632l-28.8 28.8c-11.2 11.2-32 11.2-43.2 0l-304-304-160 160c-11.2 12.8-32 12.8-43.2 0l-28.8-28.8c-12.8-11.2-12.8-32 0-43.2l209.6-209.6c6.4-6.4 14.4-9.6 22.4-9.6s16 3.2 22.4 9.6l355.2 355.2c9.6 9.6 9.6 28.8-1.6 41.6z" />
<glyph unicode="&#xe601;" glyph-name="icon-bell" d="M518.4 86.4c-281.6 0-443.2 40-443.2 40 0 240 201.6 163.2 201.6 563.2 0 105.6 67.2 145.6 161.6 156.8 0 1.6 0 3.2 0 4.8 0 44.8 36.8 80 80 80s80-36.8 80-80c0-1.6 0-3.2 0-4.8 94.4-11.2 161.6-51.2 161.6-158.4 0-401.6 201.6-324.8 201.6-563.2 0 1.6-161.6-38.4-443.2-38.4zM404.8 48c16-48 60.8-83.2 113.6-83.2s97.6 35.2 113.6 83.2c-35.2-1.6-73.6-1.6-113.6-1.6s-78.4 1.6-113.6 1.6z" />
<glyph unicode="&#xe602;" glyph-name="icon-block" d="M520 947.2c-273.6 0-496-222.4-496-496s222.4-496 496-496 496 222.4 496 496-222.4 496-496 496zM915.2 451.2c0-88-28.8-168-78.4-233.6l-552 550.4c65.6 48 147.2 78.4 233.6 78.4 219.2 0 396.8-177.6 396.8-395.2zM124.8 451.2c0 92.8 33.6 179.2 88 246.4l553.6-553.6c-67.2-54.4-153.6-88-246.4-88-217.6 0-395.2 177.6-395.2 395.2z" />
<glyph unicode="&#xe603;" glyph-name="icon-check" d="M987.2 745.6l-46.4 46.4c-19.2 19.2-49.6 19.2-68.8 0l-480-480-249.6 249.6c-19.2 19.2-49.6 19.2-68.8 0l-46.4-44.8c-19.2-19.2-19.2-49.6 0-68.8l331.2-331.2c9.6-9.6 20.8-14.4 33.6-14.4s24 4.8 33.6 14.4l560 560c19.2 19.2 19.2 49.6 1.6 68.8z" />
<glyph unicode="&#xe604;" glyph-name="icon-clip" d="M707.2 659.2c-17.6 0-30.4-12.8-30.4-30.4v-449.6c0-46.4-16-83.2-48-115.2s-70.4-48-116.8-48c-44.8 0-84.8 16-116.8 48s-48 70.4-48 116.8v593.6c0 30.4 11.2 57.6 32 78.4 22.4 22.4 48 33.6 80 33.6s57.6-11.2 80-33.6c20.8-22.4 32-48 32-78.4v-505.6c0-32-24-56-56-56-30.4 0-56 25.6-56 56v260.8c0 17.6-12.8 30.4-30.4 30.4s-30.4-12.8-30.4-30.4v-262.4c0-32 11.2-60.8 33.6-83.2s49.6-33.6 83.2-33.6 60.8 11.2 83.2 33.6c22.4 22.4 33.6 49.6 33.6 83.2v505.6c0 48-17.6 88-51.2 121.6s-75.2 51.2-121.6 51.2c-48 0-88-17.6-121.6-51.2s-51.2-75.2-51.2-121.6v-595.2c0-62.4 22.4-115.2 65.6-160 43.2-43.2 97.6-65.6 160-65.6s116.8 20.8 161.6 65.6c44.8 44.8 65.6 99.2 65.6 160v451.2c-1.6 17.6-14.4 30.4-32 30.4z" />
<glyph unicode="&#xe605;" glyph-name="icon-cloud" d="M790.4 584c-43.2 67.2-118.4 108.8-200 108.8-11.2 0-22.4 0-32-1.6-44.8 60.8-115.2 97.6-192 97.6-129.6 0-233.6-104-236.8-232-76.8-41.6-124.8-120-124.8-208 1.6-131.2 107.2-236.8 238.4-236.8h532.8c129.6 0 236.8 105.6 236.8 236.8 0 124.8-99.2 227.2-222.4 235.2zM776 176h-235.2v275.2l99.2-99.2c12.8-12.8 32-12.8 44.8 0s12.8 32 0 44.8l-153.6 153.6c-12.8 12.8-32 12.8-44.8 0l-153.6-153.6c-12.8-12.8-12.8-32 0-44.8 6.4-6.4 14.4-9.6 22.4-9.6s16 3.2 22.4 9.6l99.2 99.2v-275.2h-233.6c-96 0-172.8 76.8-172.8 171.2 0 70.4 41.6 132.8 105.6 158.4 12.8 4.8 20.8 17.6 19.2 32 0 4.8 0 9.6 0 12.8 0 94.4 76.8 172.8 172.8 172.8 60.8 0 118.4-32 148.8-84.8 6.4-12.8 20.8-17.6 35.2-14.4 12.8 3.2 27.2 4.8 40 4.8 64 0 123.2-35.2 152-91.2 6.4-11.2 17.6-17.6 28.8-17.6 1.6 0 1.6 0 3.2 0 94.4 0 172.8-76.8 172.8-172.8 0-94.4-78.4-171.2-172.8-171.2z" />
<glyph unicode="&#xe606;" glyph-name="icon-config" d="M876.8 571.2l-4.8 1.6-17.6 43.2 1.6 4.8c54.4 123.2 51.2 128 41.6 136l-72 70.4c-3.2 3.2-9.6 4.8-12.8 4.8-4.8 0-16 0-124.8-48l-4.8-1.6-43.2 17.6-1.6 4.8c-51.2 124.8-56 124.8-68.8 124.8h-102.4c-12.8 0-17.6 0-65.6-124.8l-1.6-6.4-44.8-17.6-3.2 1.6c-73.6 30.4-115.2 46.4-126.4 46.4-4.8 0-9.6-1.6-12.8-4.8l-73.6-72c-9.6-9.6-12.8-12.8 44.8-134.4l1.6-4.8-17.6-43.2-4.8-1.6c-128-49.6-128-54.4-128-67.2v-100.8c0-12.8 0-17.6 128-64l4.8-1.6 17.6-43.2-1.6-3.2c-54.4-123.2-51.2-126.4-41.6-136l72-70.4c3.2-3.2 8-4.8 12.8-4.8s16 0 124.8 48l4.8 1.6 44.8-17.6 1.6-4.8c51.2-124.8 56-124.8 68.8-124.8h102.4c12.8 0 17.6 0 65.6 124.8l1.6 4.8 44.8 17.6 4.8-1.6c72-30.4 115.2-46.4 126.4-46.4 4.8 0 9.6 1.6 12.8 4.8l73.6 72c9.6 9.6 12.8 12.8-44.8 134.4l-1.6 4.8 17.6 43.2 4.8 1.6c128 49.6 128 54.4 128 67.2v100.8c-3.2 12.8-3.2 17.6-131.2 64zM520 291.2c-91.2 0-166.4 73.6-166.4 163.2s75.2 163.2 166.4 163.2c91.2 0 166.4-73.6 166.4-163.2 0-91.2-75.2-163.2-166.4-163.2z" />
<glyph unicode="&#xe607;" glyph-name="icon-download" d="M878.4 84.8h-721.6c-22.4 0-40-17.6-40-40v-52.8c0-22.4 17.6-40 40-40h721.6c22.4 0 40 17.6 40 40v52.8c0 22.4-17.6 40-40 40zM489.6 155.2c8-8 17.6-11.2 28.8-11.2 9.6 0 20.8 3.2 28.8 11.2l273.6 273.6c16 16 16 40 0 56l-38.4 38.4c-16 16-40 16-56 0l-140.8-140.8v528c0 22.4-17.6 40-40 40h-52.8c-22.4 0-40-17.6-40-40v-528l-140.8 140.8c-16 16-41.6 16-56 0l-38.4-38.4c-16-16-16-41.6 0-56l272-273.6z" />
<glyph unicode="&#xe608;" glyph-name="icon-edit-circle" d="M512-48c-276.8 0-500.8 224-500.8 500.8s224 500.8 500.8 500.8c276.8 0 500.8-224 500.8-500.8s-225.6-500.8-500.8-500.8zM512 905.6c-251.2 0-454.4-203.2-454.4-452.8s203.2-452.8 454.4-452.8c249.6 0 452.8 203.2 452.8 452.8s-203.2 452.8-452.8 452.8zM571.2 627.2l99.2-99.2-251.2-251.2-99.2 99.2 251.2 251.2zM745.6 651.2l-44.8 44.8c-17.6 17.6-44.8 17.6-62.4 0l-41.6-41.6 99.2-99.2 49.6 49.6c12.8 11.2 12.8 33.6 0 46.4zM267.2 236.8c-1.6-8 4.8-16 14.4-12.8l110.4 27.2-99.2 99.2-25.6-113.6zM278.4 214.4v0c-6.4 0-11.2 3.2-14.4 8s-4.8 11.2-3.2 16l28.8 126.4 120-120-124.8-30.4c-3.2 0-4.8 0-6.4 0zM297.6 332.8l-22.4-99.2c0-1.6 0-1.6 0-3.2 1.6-1.6 1.6-1.6 3.2-1.6l96 24-76.8 80zM419.2 265.6l-110.4 110.4 262.4 262.4 110.4-110.4-262.4-262.4zM331.2 376l88-88 240 240-88 88-240-240zM696 542.4l-110.4 110.4 48 48c19.2 19.2 54.4 19.2 73.6 0l44.8-44.8c8-8 12.8-19.2 12.8-30.4s-4.8-22.4-12.8-28.8l-56-54.4zM608 652.8l88-88 43.2 43.2c4.8 4.8 8 11.2 8 17.6s-3.2 12.8-8 17.6l-44.8 44.8c-12.8 12.8-36.8 12.8-51.2 0l-35.2-35.2z" />
<glyph unicode="&#xe609;" glyph-name="icon-edit" d="M633.6 779.2l204.8-204.8-518.4-516.8-204.8 204.8 518.4 516.8zM993.6 828.8l-91.2 91.2c-35.2 35.2-92.8 35.2-128 0l-88-88 204.8-204.8 102.4 102.4c27.2 27.2 27.2 72 0 99.2zM8-25.6c-3.2-17.6 11.2-32 28.8-27.2l228.8 56-206.4 203.2-51.2-232z" />
<glyph unicode="&#xe60a;" glyph-name="icon-excl-circle" d="M516.8 950.4c-276.8 0-500.8-224-500.8-499.2 0-276.8 224-500.8 500.8-500.8s500.8 224 500.8 500.8c0 275.2-225.6 499.2-500.8 499.2zM572.8 752l-20.8-416h-68.8l-20.8 416h110.4zM560 169.6c-9.6-11.2-24-16-43.2-16s-33.6 4.8-44.8 16c-11.2 11.2-16 25.6-16 44.8s4.8 35.2 16 44.8c9.6 9.6 25.6 16 44.8 16s33.6-4.8 43.2-16 14.4-25.6 14.4-44.8c1.6-19.2-3.2-33.6-14.4-44.8z" />
<glyph unicode="&#xe60b;" glyph-name="icon-excl" d="M395.2 62.4c0 38.4 9.6 65.6 30.4 84.8s49.6 28.8 88 28.8c36.8 0 65.6-9.6 86.4-28.8s30.4-48 30.4-84.8c0-35.2-9.6-62.4-30.4-83.2s-49.6-30.4-86.4-30.4c-36.8 0-67.2 9.6-86.4 30.4-22.4 19.2-32 48-32 83.2zM595.2 292.8h-163.2l-33.6 656h232l-35.2-656z" />
<glyph unicode="&#xe60c;" glyph-name="icon-file" d="M708.542 960h-513.652c-34.684 0-62.761-28.077-62.761-62.761v-896.826c0-34.684 28.077-62.761 62.761-62.761h630.916c34.684 0 62.761 28.077 62.761 62.761v766.348l-180.026 193.239zM723.406 865.858l77.626-84.232h-77.626v84.232zM835.716 0.413c0-4.955-4.955-9.91-9.91-9.91h-630.916c-4.955 0-9.91 4.955-9.91 9.91v896.826c0 4.955 4.955 9.91 9.91 9.91h477.316v-151.948c0-14.865 11.561-26.426 26.426-26.426h137.084v-728.361zM277.471 679.226h447.587c11.561 0 19.819-8.258 19.819-19.819s-8.258-19.819-19.819-19.819h-447.587c-11.561 0-19.819 8.258-19.819 19.819s9.91 19.819 19.819 19.819zM744.877 527.277c0-11.561-8.258-19.819-19.819-19.819h-447.587c-11.561 0-19.819 8.258-19.819 19.819s9.91 19.819 19.819 19.819h447.587c9.91 0 19.819-8.258 19.819-19.819zM744.877 400.103c0-11.561-8.258-19.819-19.819-19.819h-447.587c-11.561 0-19.819 8.258-19.819 19.819s8.258 19.819 19.819 19.819h447.587c9.91 0 19.819-9.91 19.819-19.819zM744.877 269.626c0-11.561-8.258-19.819-19.819-19.819h-447.587c-11.561 0-19.819 8.258-19.819 19.819s8.258 19.819 19.819 19.819h447.587c9.91 0 19.819-9.91 19.819-19.819z" />
<glyph unicode="&#xe60d;" glyph-name="icon-folder" d="M966.4 600h-912c-46.4 0-48-22.4-46.4-49.6l41.6-452.8c3.2-27.2 9.6-49.6 56-49.6h809.6c46.4 0 52.8 22.4 54.4 49.6l41.6 452.8c3.2 27.2 1.6 49.6-44.8 49.6zM932.8 710.4c-4.8 22.4-33.6 40-60.8 40h-342.4c-27.2 0-67.2 16-86.4 35.2l-30.4 30.4c-19.2 19.2-59.2 35.2-86.4 35.2h-163.2c-27.2 0-52.8-22.4-56-49.6l-14.4-131.2h849.6l-9.6 40z" />
<glyph unicode="&#xe60e;" glyph-name="icon-glass" d="M302.4 339.2c-14.4-3.2-28.8-9.6-40-22.4l-216-214.4c-32-32-32-81.6 0-113.6s81.6-32 113.6 0l216 216c11.2 11.2 19.2 25.6 22.4 40 148.8-102.4 353.6-89.6 486.4 43.2 148.8 148.8 148.8 390.4 0 537.6-148.8 148.8-390.4 148.8-537.6 0-132.8-131.2-147.2-337.6-44.8-486.4zM414.4 758.4c110.4 110.4 291.2 110.4 401.6 0s110.4-291.2 0-401.6c-110.4-110.4-291.2-110.4-401.6 0s-110.4 289.6 0 401.6z" />
<glyph unicode="&#xe60f;" glyph-name="icon-help" d="M515.2 934.4c-270.4 0-488-219.2-488-488s219.2-488 488-488c268.8 0 488 217.6 488 488 0 268.8-219.2 488-488 488zM526.4 187.2c-9.6-9.6-22.4-14.4-38.4-14.4-17.6 0-30.4 4.8-38.4 14.4-9.6 9.6-12.8 24-12.8 40 0 35.2 17.6 54.4 52.8 54.4 17.6 0 30.4-4.8 40-14.4s12.8-22.4 12.8-40c-3.2-17.6-8-30.4-16-40zM652.8 536c-4.8-14.4-12.8-27.2-24-40s-28.8-28.8-54.4-49.6c-22.4-17.6-40-32-48-43.2s-14.4-27.2-14.4-46.4v-4.8h-48v11.2c0 25.6-3.2 48 6.4 65.6s22.4 35.2 46.4 54.4c28.8 22.4 44.8 40 52.8 52.8s11.2 27.2 11.2 44.8c0 20.8-6.4 35.2-20.8 46.4-12.8 11.2-32 16-57.6 16-22.4 0-43.2-3.2-62.4-9.6s-38.4-14.4-56-24l-30.4 62.4c48 27.2 100.8 40 155.2 40 46.4 0 83.2-11.2 110.4-33.6s41.6-54.4 41.6-94.4c0-19.2-1.6-35.2-8-48z" />
<glyph unicode="&#xe610;" glyph-name="icon-info" d="M515.2 950.4c-276.8 0-502.4-224-502.4-500.8s225.6-502.4 502.4-502.4c276.8 0 502.4 224 502.4 502.4 0 276.8-224 500.8-502.4 500.8zM620.8 172.8c-25.6-9.6-46.4-17.6-62.4-24-16-4.8-33.6-8-54.4-8-32 0-56 8-73.6 22.4-17.6 16-25.6 35.2-25.6 57.6 0 9.6 0 19.2 1.6 28.8s3.2 20.8 6.4 32l32 113.6c3.2 11.2 4.8 20.8 8 30.4 1.6 9.6 3.2 19.2 3.2 27.2 0 14.4-3.2 24-9.6 30.4s-17.6 8-35.2 8c-8 0-17.6-1.6-25.6-3.2-8-3.2-16-4.8-22.4-8l8 35.2c20.8 8 41.6 16 60.8 22.4s38.4 9.6 54.4 9.6c30.4 0 54.4-8 72-22.4 16-14.4 25.6-35.2 25.6-59.2 0-4.8 0-14.4-1.6-25.6-1.6-12.8-3.2-24-6.4-35.2l-32-113.6c-3.2-9.6-4.8-19.2-6.4-32-1.6-11.2-3.2-20.8-3.2-27.2 0-14.4 3.2-25.6 9.6-30.4s19.2-8 35.2-8c8 0 16 1.6 27.2 4.8 9.6 3.2 17.6 4.8 20.8 6.4l-6.4-32zM614.4 635.2c-14.4-14.4-33.6-20.8-54.4-20.8s-40 6.4-54.4 20.8c-14.4 14.4-22.4 30.4-22.4 51.2 0 19.2 8 36.8 22.4 51.2s33.6 20.8 54.4 20.8c20.8 0 40-6.4 54.4-20.8s22.4-30.4 22.4-51.2c0-20.8-8-36.8-22.4-51.2z" />
<glyph unicode="&#xe611;" glyph-name="icon-oops" d="M1024 16h-1024v816h1024v-816zM16 32h992v784h-992v-784zM296 571.2h107.2v-107.2h-107.2v107.2zM616 571.2h107.2v-107.2h-107.2v107.2zM721.6 286.4l-230.4 19.2-195.2-1.6v19.2l195.2 1.6 232-19.2z" />
<glyph unicode="&#xe612;" glyph-name="pendiente" d="M509.998-52.493c-275.291 0-502.002 226.71-502.002 502.002s226.71 502.002 502.002 502.002c275.291 0 502.002-226.71 502.002-502.002s-226.71-502.002-502.002-502.002zM509.998 854.349c-223.472 0-404.84-181.368-404.84-404.84s181.368-404.84 404.84-404.84c223.472 0 404.84 181.368 404.84 404.84s-181.368 404.84-404.84 404.84zM448.463 232.515c0 19.432 6.477 35.626 16.194 45.342s25.91 16.194 45.342 16.194c19.432 0 35.626-6.477 45.342-16.194s16.194-25.91 16.194-45.342c0-19.432-6.477-32.387-16.194-45.342-9.716-9.716-25.91-16.194-45.342-16.194s-35.626 6.477-45.342 16.194c-12.955 9.716-16.194 25.91-16.194 45.342zM555.34 355.586h-87.445l-19.432 346.543h123.071l-16.194-346.543z" />
<glyph unicode="&#xe613;" glyph-name="icon-print" d="M336 212.8h305.6v-60.8h-305.6v60.8zM275.2 884.8h489.6v-121.6h60.8v121.6c0 33.6-27.2 60.8-60.8 60.8h-489.6c-33.6 0-60.8-27.2-60.8-60.8v-121.6h60.8v121.6zM336 336h366.4v-60.8h-366.4v60.8zM947.2 702.4h-854.4c-33.6 0-60.8-27.2-60.8-60.8v-366.4c0-33.6 27.2-60.8 60.8-60.8h121.6v-184c0-33.6 27.2-60.8 60.8-60.8h489.6c33.6 0 60.8 27.2 60.8 60.8v182.4h121.6c33.6 0 60.8 27.2 60.8 60.8v368c1.6 33.6-25.6 60.8-60.8 60.8zM764.8 30.4h-489.6v366.4h489.6v-366.4zM886.4 518.4c-33.6 0-60.8 27.2-60.8 60.8s27.2 60.8 60.8 60.8c33.6 0 60.8-27.2 60.8-60.8s-27.2-60.8-60.8-60.8z" />
<glyph unicode="&#xe614;" glyph-name="rechazado" d="M512.002-53.278c-274.271 0-500.142 225.87-500.142 500.142s225.87 500.142 500.142 500.142c274.271 0 500.142-225.87 500.142-500.142s-225.87-500.142-500.142-500.142zM512.002 850.204c-222.644 0-403.34-180.696-403.34-403.34s180.696-403.34 403.34-403.34c222.644 0 403.34 180.696 403.34 403.34s-180.696 403.34-403.34 403.34zM582.989 437.184l122.615 122.615c19.36 19.36 19.36 48.401 0 67.761s-51.628 19.36-70.988 0l-122.615-122.615-122.615 122.615c-19.36 19.36-51.628 19.36-70.988 0s-19.36-48.401 0-67.761l122.615-122.615-122.615-122.615c-19.36-19.36-19.36-51.628 0-70.988 9.68-9.68 22.587-12.907 35.494-12.907s25.814 3.227 35.494 12.907l122.615 122.615 122.615-122.615c9.68-9.68 22.587-12.907 35.494-12.907s25.814 3.227 35.494 12.907c19.36 19.36 19.36 51.628 0 70.988l-122.615 122.615z" />
<glyph unicode="&#xe615;" glyph-name="icon-relate" d="M953.6 904c-65.6 65.6-174.4 65.6-240 0l-182.4-182.4c-51.2-51.2-64-129.6-33.6-192l-67.2-67.2c-62.4 28.8-140.8 17.6-192-33.6l-182.4-180.8c-65.6-65.6-65.6-174.4 0-240s174.4-65.6 240 0l182.4 182.4c54.4 54.4 64 136 30.4 200l62.4 62.4c64-35.2 145.6-24 200 30.4l182.4 180.8c65.6 65.6 65.6 172.8 0 240zM424 244.8l-182.4-182.4c-35.2-35.2-94.4-35.2-129.6 0s-35.2 94.4 0 129.6l180.8 180.8c20.8 20.8 48 28.8 73.6 25.6l-48-48c-20.8-20.8-20.8-54.4 0-75.2s54.4-20.8 75.2 0l52.8 52.8c8-28.8 0-60.8-22.4-83.2zM897.6 718.4l-182.4-182.4c-22.4-22.4-54.4-30.4-84.8-24l32 32c20.8 20.8 20.8 54.4 0 75.2s-54.4 20.8-75.2 0l-27.2-27.2c-3.2 25.6 6.4 54.4 25.6 73.6l182.4 182.4c35.2 35.2 94.4 35.2 129.6 0s35.2-94.4 0-129.6z" />
<glyph unicode="&#xe616;" glyph-name="icon-scan" d="M225.6 916.8h-150.4c-27.2 0-49.6-22.4-49.6-51.2v-150.4c0-27.2 22.4-49.6 49.6-49.6h150.4c27.2 0 49.6 22.4 49.6 49.6v150.4c0 28.8-22.4 51.2-49.6 51.2zM230.4 716.8c0-3.2-3.2-6.4-6.4-6.4h-148.8c-3.2 0-6.4 3.2-6.4 6.4v150.4c0 3.2 3.2 6.4 6.4 6.4h148.8c3.2 0 6.4-3.2 6.4-6.4v-150.4zM102.4 838.4h96v-96h-96v96zM225.6 524.8h-150.4c-27.2 0-49.6-22.4-49.6-49.6v-150.4c0-27.2 22.4-51.2 49.6-51.2h150.4c27.2 0 49.6 22.4 49.6 51.2v150.4c0 27.2-22.4 49.6-49.6 49.6zM230.4 323.2c0-3.2-1.6-4.8-6.4-4.8h-148.8c-3.2 0-6.4 1.6-6.4 4.8v150.4c0 3.2 3.2 6.4 6.4 6.4h150.4c3.2 0 6.4-3.2 6.4-6.4l-1.6-150.4zM102.4 446.4h96v-96h-96v96zM465.6 665.6h150.4c27.2 0 51.2 22.4 51.2 49.6v150.4c0 27.2-22.4 49.6-51.2 49.6h-150.4c-27.2 0-49.6-22.4-49.6-49.6v-150.4c0-27.2 20.8-49.6 49.6-49.6zM459.2 867.2c0 3.2 3.2 6.4 6.4 6.4h150.4c3.2 0 6.4-3.2 6.4-6.4v-150.4c0-3.2-3.2-6.4-6.4-6.4h-152c-3.2 0-6.4 3.2-6.4 6.4v150.4zM491.2 838.4h97.6v-96h-97.6v96zM115.2 636.8h-33.6c-8 0-12.8-6.4-12.8-12.8v-33.6c0-8 6.4-14.4 12.8-14.4h32c0-8 4.8-12.8 12.8-12.8h73.6v-1.6c0-8 6.4-12.8 14.4-12.8h33.6c8 0 12.8 6.4 12.8 12.8v32c0 8-6.4 12.8-12.8 12.8h-16v17.6c0 8-6.4 12.8-12.8 12.8h-17.6c-8 0-12.8-6.4-12.8-12.8v-17.6h-59.2v17.6c0 8-6.4 12.8-14.4 12.8zM326.4 774.4v-73.6c0-8 4.8-12.8 12.8-12.8h48c8 0 14.4 6.4 14.4 12.8v33.6c0 8-6.4 14.4-14.4 14.4h-16v100.8h1.6c8 0 12.8 4.8 12.8 12.8v19.2c0 8-6.4 12.8-12.8 12.8h-62.4c-8 0-12.8-4.8-12.8-12.8v-17.6c0-8 4.8-12.8 12.8-12.8h17.6v-46.4h-17.6c-8 0-12.8-6.4-12.8-12.8v-3.2c0-8 4.8-12.8 12.8-12.8h16zM363.2 622.4v32c0 8-6.4 12.8-12.8 12.8h-32c-8 0-12.8-6.4-12.8-12.8v-32c0-8 6.4-12.8 12.8-12.8h32c6.4 0 12.8 4.8 12.8 12.8zM419.2 611.2c-8 0-14.4-6.4-14.4-12.8v-12.8c11.2 9.6 24 19.2 35.2 27.2h-20.8zM403.2 580.8h-56c-8 0-14.4-6.4-14.4-12.8v-75.2c14.4 27.2 33.6 52.8 56 75.2 4.8 4.8 9.6 9.6 14.4 12.8zM960 81.6l-123.2 123.2c65.6 104 52.8 243.2-38.4 334.4-105.6 105.6-276.8 105.6-380.8 0-105.6-105.6-105.6-276.8 0-380.8 91.2-91.2 228.8-104 334.4-38.4l123.2-123.2c24-24 62.4-24 84.8 0 24 22.4 24 60.8 0 84.8zM747.2 208c-76.8-76.8-201.6-76.8-278.4 0s-76.8 201.6 0 278.4c76.8 76.8 201.6 76.8 278.4 0 76.8-75.2 76.8-201.6 0-278.4z" />
<glyph unicode="&#xe617;" glyph-name="icon-share" d="M852.8 260.8c-44.8 0-83.2-17.6-112-48l-420.8 211.2c1.6 8 1.6 16 1.6 24s0 16-1.6 24l420.8 211.2c28.8-28.8 68.8-48 112-48 86.4 0 156.8 70.4 156.8 156.8s-70.4 156.8-156.8 156.8c-86.4 0-156.8-70.4-156.8-156.8 0-8 0-16 1.6-24l-420.8-211.2c-28.8 28.8-68.8 48-112 48-86.4 0-156.8-70.4-156.8-156.8s70.4-156.8 156.8-156.8c44.8 0 83.2 17.6 112 48l420.8-211.2c-1.6-8-1.6-16-1.6-24 0-86.4 70.4-156.8 156.8-156.8s156.8 70.4 156.8 156.8c0 86.4-70.4 156.8-156.8 156.8z" />
<glyph unicode="&#xe618;" glyph-name="icon-smart-folder" d="M510.4 395.2c-36.8 0-68.8-30.4-68.8-67.2s30.4-67.2 68.8-67.2c36.8 0 68.8 30.4 68.8 67.2s-30.4 67.2-68.8 67.2zM928 688c-4.8 22.4-32 64-59.2 64h-339.2c-27.2 0-65.6 11.2-84.8 30.4l-28.8 22.4c-20.8 19.2-59.2 27.2-86.4 27.2h-161.6c-27.2 0-52.8-36.8-56-64l-14.4-144h838.4l-8 64zM960 576h-897.6c-46.4 0-48-12.8-44.8-40l41.6-435.2c0-25.6 6.4-36.8 52.8-36.8h798.4c46.4 0 51.2 16 54.4 43.2l41.6 433.6c1.6 25.6 0 35.2-46.4 35.2zM704 308.8c0-4.8 3.2-8-49.6-27.2v0l-6.4-17.6 1.6-1.6c24-49.6 22.4-51.2 17.6-54.4l-30.4-28.8c-1.6-3.2-3.2-3.2-4.8-3.2-4.8 0-22.4 6.4-51.2 19.2h-1.6l-19.2-8v-12.8c-19.2-51.2-20.8-62.4-27.2-62.4h-41.6c-4.8 0-8 11.2-27.2 62.4v8l-19.2 9.6h-1.6c-43.2-19.2-49.6-19.2-51.2-19.2s-3.2 1.6-4.8 3.2l-30.4 28.8c-3.2 3.2-4.8 4.8 17.6 56v1.6l-6.4 17.6h1.6c-52.8 19.2-49.6 20.8-49.6 25.6v41.6c0 4.8-3.2 8 49.6 27.2v0l6.4 17.6-1.6 1.6c-24 49.6-22.4 51.2-17.6 54.4l30.4 28.8c1.6 1.6 3.2 1.6 4.8 1.6 4.8 0 22.4-6.4 51.2-19.2h1.6l17.6 8v-11.2c19.2 51.2 20.8 38.4 27.2 38.4h41.6c4.8 0 8 12.8 27.2-38.4v4.8l17.6-3.2 1.6 3.2c43.2 19.2 49.6 20.8 51.2 20.8s3.2 0 4.8-1.6l30.4-28.8c3.2-3.2 4.8-4.8-17.6-56v-1.6l8-17.6c52.8-19.2 49.6-20.8 49.6-25.6v-41.6z" />
<glyph unicode="&#xe619;" glyph-name="icon-synch" d="M516.844 105.232c-184.568 0-335.269 150.702-335.269 335.269s150.702 335.269 335.269 335.269c79.584 0 152.395-27.092 209.967-74.504l-165.941-143.929 436.866-64.345v441.946l-154.088-132.076c-86.357 77.891-199.807 125.303-326.803 125.303-269.232 0-487.665-218.433-487.665-487.665s218.433-487.665 487.665-487.665c211.66 0 391.148 133.769 458.879 321.723l-155.782 23.706c-54.185-113.45-169.328-193.034-303.097-193.034z" />
<glyph unicode="&#xe61a;" glyph-name="icon-tag" d="M920 953.6h-283.2c-52.8 0-124.8-30.4-161.6-67.2l-440-440c-36.8-36.8-36.8-97.6 0-134.4l339.2-339.2c36.8-36.8 97.6-36.8 134.4 0l440 440c36.8 36.8 67.2 108.8 67.2 161.6v283.2c-1.6 52.8-43.2 96-96 96zM795.2 638.4c-52.8 0-94.4 41.6-94.4 94.4s41.6 94.4 94.4 94.4 94.4-41.6 94.4-94.4-43.2-94.4-94.4-94.4z" />
<glyph unicode="&#xe61b;" glyph-name="icon-times" d="M678.4 451.2l294.4 294.4c46.4 46.4 46.4 121.6 0 168s-121.6 46.4-168 0l-296-292.8-294.4 292.8c-46.4 46.4-121.6 46.4-168 0s-46.4-121.6 0-168l294.4-294.4-294.4-292.8c-46.4-46.4-46.4-123.2 0-169.6 24-24 54.4-35.2 84.8-35.2s60.8 11.2 84.8 35.2l294.4 294.4 294.4-294.4c24-24 54.4-35.2 84.8-35.2s60.8 11.2 84.8 35.2c46.4 46.4 46.4 121.6 0 168l-296 294.4z" />
<glyph unicode="&#xe61c;" glyph-name="tramite" d="M512.494-44.020c-269.538 0-491.511 221.973-491.511 491.511s221.973 491.511 491.511 491.511c269.538 0 491.511-221.973 491.511-491.511s-221.973-491.511-491.511-491.511zM512.494 843.871c-218.802 0-396.38-177.578-396.38-396.38s177.578-396.38 396.38-396.38c218.802 0 396.38 177.578 396.38 396.38s-177.578 396.38-396.38 396.38zM810.572 444.32h-253.683v304.42c0 25.368-19.026 47.566-44.395 47.566s-47.566-22.197-47.566-47.566v-351.985c0-25.368 22.197-47.566 47.566-47.566h301.249c25.368 0 47.566 22.197 47.566 47.566-3.171 25.368-22.197 47.566-50.737 47.566z" />
<glyph unicode="&#xe61d;" glyph-name="icon-trash" d="M249.6 11.2c0 0 14.4-68.8 92.8-68.8h350.4c76.8 0 92.8 68.8 92.8 68.8l68.8 672h-673.6l68.8-672zM652.8 584c0 19.2 14.4 33.6 33.6 33.6s33.6-14.4 33.6-33.6l-33.6-505.6c0-19.2-14.4-33.6-33.6-33.6s-33.6 14.4-33.6 33.6l33.6 505.6zM483.2 584c0 19.2 14.4 33.6 33.6 33.6s33.6-14.4 33.6-33.6v-505.6c0-19.2-14.4-33.6-33.6-33.6s-33.6 14.4-33.6 33.6v505.6zM348.8 617.6c19.2 0 33.6-14.4 33.6-33.6l33.6-505.6c0-19.2-14.4-33.6-33.6-33.6s-33.6 14.4-33.6 33.6l-33.6 505.6c0 17.6 14.4 33.6 33.6 33.6zM833.6 819.2h-148.8v67.2c0 51.2-16 67.2-67.2 67.2h-201.6c-46.4 0-67.2-22.4-67.2-67.2v-67.2h-148.8c-30.4 0-54.4-22.4-54.4-51.2 0-27.2 24-51.2 54.4-51.2h633.6c30.4 0 54.4 22.4 54.4 51.2s-24 51.2-54.4 51.2zM617.6 819.2h-201.6v67.2h201.6v-67.2z" />
<glyph unicode="&#xe61e;" glyph-name="icon-more" d="M246.4 456c0-64.507-52.293-116.8-116.8-116.8s-116.8 52.293-116.8 116.8c0 64.507 52.293 116.8 116.8 116.8s116.8-52.293 116.8-116.8zM611.2 456c0-64.507-52.293-116.8-116.8-116.8s-116.8 52.293-116.8 116.8c0 64.507 52.293 116.8 116.8 116.8s116.8-52.293 116.8-116.8zM1006.4 456c0-64.507-52.293-116.8-116.8-116.8s-116.8 52.293-116.8 116.8c0 64.507 52.293 116.8 116.8 116.8s116.8-52.293 116.8-116.8z" />
</font>
</defs>
</svg>
